<mxfile>
    <diagram id="-pcRB1szolX4Oo3Rn_cl" name="Page-1">
        <mxGraphModel dx="1171" dy="790" grid="1" gridSize="10" guides="1" tooltips="1" connect="1" arrows="1" fold="1" page="1" pageScale="1" pageWidth="850" pageHeight="1100" math="0" shadow="0">
            <root>
                <mxCell id="0"/>
                <mxCell id="1" parent="0"/>
                <mxCell id="2" value="&lt;div style=&quot;text-align: left ; font-size: 28px&quot;&gt;&lt;font style=&quot;font-size: 28px&quot;&gt;User&lt;/font&gt;&lt;/div&gt;&lt;font style=&quot;font-size: 28px&quot;&gt;&lt;div style=&quot;text-align: left&quot;&gt;&lt;br&gt;&lt;/div&gt;&lt;div style=&quot;text-align: left&quot;&gt;&lt;span&gt;Name: String&lt;/span&gt;&lt;/div&gt;&lt;div style=&quot;text-align: left&quot;&gt;&lt;span&gt;Username: String&lt;/span&gt;&lt;/div&gt;&lt;div style=&quot;text-align: left&quot;&gt;&lt;span&gt;Password: String&lt;/span&gt;&lt;/div&gt;&lt;div style=&quot;text-align: left&quot;&gt;Admin: Boolean&lt;/div&gt;&lt;/font&gt;" style="rounded=0;whiteSpace=wrap;html=1;" parent="1" vertex="1">
                    <mxGeometry x="250" y="20" width="300" height="260" as="geometry"/>
                </mxCell>
                <mxCell id="3" value="&lt;div style=&quot;text-align: left&quot;&gt;&lt;span style=&quot;font-size: 28px&quot;&gt;Product&lt;/span&gt;&lt;/div&gt;&lt;font&gt;&lt;div style=&quot;text-align: left&quot;&gt;&lt;span style=&quot;font-size: 28px&quot;&gt;&lt;br&gt;&lt;/span&gt;&lt;/div&gt;&lt;div style=&quot;text-align: left&quot;&gt;&lt;span style=&quot;font-size: 28px&quot;&gt;ID: Number&lt;/span&gt;&lt;/div&gt;&lt;span style=&quot;font-size: 28px&quot;&gt;&lt;div style=&quot;text-align: left&quot;&gt;&lt;span&gt;Name: String&lt;/span&gt;&lt;/div&gt;&lt;/span&gt;&lt;span style=&quot;font-size: 28px&quot;&gt;&lt;div style=&quot;text-align: left&quot;&gt;&lt;span&gt;Description: String&lt;/span&gt;&lt;/div&gt;&lt;/span&gt;&lt;span style=&quot;font-size: 28px&quot;&gt;&lt;div style=&quot;text-align: left&quot;&gt;&lt;span&gt;Img: String URL&lt;/span&gt;&lt;/div&gt;&lt;/span&gt;&lt;span style=&quot;font-size: 28px&quot;&gt;&lt;div style=&quot;text-align: left&quot;&gt;&lt;span&gt;Product Type: String&lt;/span&gt;&lt;/div&gt;&lt;/span&gt;&lt;span style=&quot;font-size: 28px&quot;&gt;&lt;div style=&quot;text-align: left&quot;&gt;&lt;span&gt;Price: Number&lt;/span&gt;&lt;br&gt;&lt;/div&gt;&lt;/span&gt;&lt;/font&gt;" style="rounded=0;whiteSpace=wrap;html=1;" parent="1" vertex="1">
                    <mxGeometry x="30" y="320" width="345" height="320" as="geometry"/>
                </mxCell>
                <mxCell id="26" value="&lt;div style=&quot;text-align: left&quot;&gt;&lt;span style=&quot;font-size: 31px&quot;&gt;Store&lt;/span&gt;&lt;/div&gt;&lt;div style=&quot;text-align: left&quot;&gt;&lt;span style=&quot;font-size: 31px&quot;&gt;&lt;br&gt;&lt;/span&gt;&lt;/div&gt;&lt;font&gt;&lt;span style=&quot;font-size: 31px&quot;&gt;&lt;div style=&quot;text-align: left&quot;&gt;&lt;span&gt;Name:&amp;nbsp; String&lt;/span&gt;&lt;/div&gt;&lt;div style=&quot;text-align: left&quot;&gt;&lt;span&gt;Products: [ { amount, id } ]&lt;/span&gt;&lt;/div&gt;&lt;/span&gt;&lt;/font&gt;" style="rounded=0;whiteSpace=wrap;html=1;" parent="1" vertex="1">
                    <mxGeometry x="440" y="320" width="380" height="320" as="geometry"/>
                </mxCell>
            </root>
        </mxGraphModel>
    </diagram>
</mxfile>